Coordinates
version=1
nRows=11
nColumns=36
inDegrees=yes

Units are S.I. units (second, meters, Newtons, ...)
If the header above contains a line with 'inDegrees', this indicates whether rotational values are in degrees (yes) or radians (no).

endheader
time	pelvis_tilt	pelvis_list	pelvis_rotation	pelvis_tx	pelvis_ty	pelvis_tz	hip_flexion_r	hip_adduction_r	hip_rotation_r	knee_angle_r	knee_angle_r_beta	ankle_angle_r	subtalar_angle_r	mtp_angle_r	hip_flexion_l	hip_adduction_l	hip_rotation_l	knee_angle_l	knee_angle_l_beta	ankle_angle_l	subtalar_angle_l	mtp_angle_l	lumbar_extension	lumbar_bending	lumbar_rotation	arm_flex_r	arm_add_r	arm_rot_r	elbow_flex_r	pro_sup_r	arm_flex_l	arm_add_l	arm_rot_l	elbow_flex_l	pro_sup_l
      0.70000000	     -0.31808973	      2.62783721	     -5.92571519	      0.68481402	      0.92326325	     -0.18609243	    -17.82336804	      1.45401954	      6.72410840	     21.97124126	      0.38347050	      1.79307382	    -15.62012887	     -7.16384358	     24.95266693	      1.50066574	     -3.35421901	     18.52236579	      0.32327627	     -6.69484098	    -16.69967310	     -7.16384358	    -11.25588708	    -21.15940101	      4.03563432	      1.76635420	     -4.08268591	     11.78090282	     31.55461131	    111.07947748	      4.91113543	    -11.15819027	    -15.58927962	     25.49315996	    105.28761629
      0.71000000	     -0.38335750	      2.95345265	     -5.82943596	      0.69848539	      0.92490354	     -0.18633175	    -16.46880008	      1.15018639	      6.17925271	     25.22264445	      0.44021819	     -1.17758302	    -16.76962778	     -7.17596948	     24.60250961	      1.92440255	     -3.25902414	     19.57850809	      0.34170943	     -5.44542501	    -16.67115193	     -7.17596948	    -11.23538679	    -22.11146231	      4.08710864	      1.57402501	     -3.97055936	     12.56272339	     31.37062681	    111.17317102	      5.00177599	    -11.38356477	    -15.93735553	     25.38799711	    105.16204696
      0.72000000	     -0.37692699	      3.22083741	     -5.72462165	      0.71191520	      0.92676296	     -0.18662562	    -14.97345459	      0.88242632	      5.57576759	     28.70650642	      0.50102305	     -4.49480157	    -17.97166371	     -7.19145160	     24.09695820	      2.28625821	     -3.30121914	     20.46391958	      0.35716277	     -4.03601283	    -16.40164535	     -7.19145160	    -11.34978742	    -22.97212286	      4.03135175	      1.48597656	     -3.91910615	     13.61484840	     31.19656856	    111.26038705	      5.07967511	    -11.57373938	    -16.36544992	     25.38337423	    105.03256566
      0.73000000	     -0.29410725	      3.58355061	     -5.60132651	      0.72523207	      0.92870131	     -0.18736948	    -13.30150096	      0.34230411	      4.55598037	     32.50222254	      0.56727080	     -7.08306859	    -18.01700363	     -7.19534006	     23.32973221	      2.86130598	     -3.15211657	     20.94346243	      0.36553238	     -3.02162517	    -16.50558010	     -7.19534006	    -11.54395292	    -23.81147671	      3.97279667	      1.29655206	     -3.87237673	     14.08478068	     31.30074177	    111.31831677	      5.19076038	    -11.74140570	    -16.53966093	     25.33277771	    104.98530235
      0.74000000	     -0.42411011	      3.62723876	     -5.50192542	      0.73801363	      0.93028186	     -0.18791542	    -11.29044424	      0.28535932	      4.02058949	     36.29710726	      0.63350403	    -10.75506282	    -19.85711948	     -7.21028576	     22.89381646	      2.96858004	     -3.27377203	     21.61945030	      0.37733059	     -1.58424682	    -15.84985759	     -7.21028576	    -11.52833961	    -24.27407366	      3.79287539	      1.34852611	     -4.07619235	     15.82687490	     31.23148461	    111.44630322	      5.17115309	    -11.81966984	    -17.09508670	     25.39299875	    104.85179971
      0.75000000	     -0.34143478	      3.87315624	     -5.38966610	      0.75077754	      0.93208301	     -0.18894528	     -9.40684627	     -0.23066602	      3.04690813	     40.09737550	      0.69983122	    -12.92608021	    -19.92353474	     -7.21418416	     22.00131376	      3.44390854	     -3.18902825	     21.78330849	      0.38019046	     -0.63055201	    -15.85460051	     -7.21418416	    -11.78567354	    -24.86043739	      3.60147568	      1.25725592	     -4.16603708	     16.41882182	     31.46730922	    111.50370952	      5.25371755	    -11.89990089	    -17.26062387	     25.41074979	    104.81545001
      0.76000000	     -0.30978017	      3.99626927	     -5.32975598	      0.76320345	      0.93368530	     -0.18999797	     -7.42214937	     -0.62276018	      2.23351570	     43.75368378	      0.76364584	    -14.71362920	    -20.44644795	     -7.21756123	     21.17352460	      3.74982674	     -3.20805385	     21.94953689	      0.38309169	      0.29724885	    -15.78126464	     -7.21756123	    -11.96416071	    -25.24836627	      3.40698603	      1.22545698	     -4.36952000	     17.17286504	     31.76508010	    111.59021881	      5.30523326	    -11.94358022	    -17.42654775	     25.42459352	    104.77788709
      0.77000000	     -0.41912965	      3.84674225	     -5.27713939	      0.77529600	      0.93505180	     -0.19097518	     -5.33325967	     -0.61430537	      1.64395903	     47.04131372	      0.82102581	    -16.89557598	    -22.57955031	     -7.23560855	     20.54178122	      3.65389510	     -3.51288324	     22.21142381	      0.38766248	      1.73128391	    -14.75851402	     -7.23560855	    -11.96893134	    -25.27598408	      2.97665382	      1.61269119	     -4.85966947	     19.90720913	     31.60096975	    111.61684267	      5.04782796	    -11.87612513	    -18.19924018	     25.76958888	    104.66197990
      0.78000000	     -0.38149837	      3.90168430	     -5.24605533	      0.78730309	      0.93658243	     -0.19225847	     -3.37862986	     -0.99924794	      0.88706580	     50.12984332	      0.87493082	    -17.06166017	    -23.29692782	     -7.23922089	     19.59317028	      3.89282602	     -3.62942286	     22.08497989	      0.38545561	      2.48533279	    -14.69717050	     -7.23922089	    -12.16643947	    -25.45398427	      2.72275076	      1.64372627	     -5.08379678	     20.37576257	     31.91152740	    111.62415979	      5.06648208	    -11.84158297	    -18.29747907	     25.81892444	    104.65468776
      0.79000000	     -0.33018797	      3.84882216	     -5.24689603	      0.79900011	      0.93818019	     -0.19351118	     -1.46851514	     -1.20581433	      0.36032474	     52.84459791	      0.92231223	    -16.67150037	    -24.28874866	     -7.24186607	     18.62030929	      3.99164352	     -3.77697543	     21.93818847	      0.38289362	      3.16506445	    -14.50680218	     -7.24186607	    -12.41064898	    -25.46696803	      2.46159599	      1.75392129	     -5.31967341	     20.81610813	     32.15521357	    111.64427911	      5.10718218	    -11.77431168	    -18.33254542	     25.84984147	    104.65320989
      0.80000000	     -0.48089451	      3.80258755	     -5.27256338	      0.81058721	      0.93951682	     -0.19479712	      0.67633279	     -1.42399828	     -0.15406610	     55.23713288	      0.96406984	    -15.74462125	    -25.44453709	     -7.24538589	     17.82813241	      4.04599195	     -4.06686512	     21.67889993	      0.37836818	      3.96260105	    -14.05267084	     -7.24538589	    -12.34390165	    -25.43630384	      2.25480069	      1.83172556	     -5.58078545	     21.40677337	     32.34888878	    111.65925595	      5.08568383	    -11.68271469	    -18.34047371	     25.91894408	    104.65818041
